<?xml version="1.0" standalone="no"?>
<!DOCTYPE svg PUBLIC "-//W3C//DTD SVG 20010904//EN"
 "http://www.w3.org/TR/2001/REC-SVG-20010904/DTD/svg10.dtd">
<svg version="1.0" xmlns="http://www.w3.org/2000/svg"
 width="1000.000000pt" height="1000.000000pt" viewBox="0 0 1000.000000 1000.000000"
 preserveAspectRatio="xMidYMid meet">
<metadata>
Created by potrace 1.11, written by Peter Selinger 2001-2013
</metadata>
<g transform="translate(0.000000,1000.000000) scale(0.100000,-0.100000)"
fill="#000000" stroke="none">
<path d="M5670 8769 c-293 -32 -666 -130 -945 -249 -336 -142 -548 -279 -916
-589 -33 -27 -38 -29 -50 -15 -7 8 -43 33 -80 56 -250 148 -505 86 -731 -177
-258 -302 -521 -910 -592 -1370 -76 -489 -71 -976 15 -1555 11 -74 26 -193 35
-265 8 -71 19 -147 23 -167 8 -36 8 -37 -23 -44 -49 -10 -143 -61 -186 -100
-22 -20 -54 -66 -72 -102 -32 -65 -33 -69 -33 -202 1 -115 5 -150 27 -232 82
-297 193 -480 337 -557 103 -55 216 -51 300 10 l40 29 6 -33 c14 -86 68 -543
86 -726 66 -696 174 -940 481 -1090 159 -78 343 -122 638 -152 153 -16 707
-16 895 0 203 17 633 73 894 117 881 146 1332 419 1461 884 42 152 74 619 63
909 l-6 144 29 -22 c16 -11 55 -30 86 -41 150 -52 260 1 338 164 71 149 104
339 104 606 1 157 -1 182 -22 241 -48 139 -136 249 -272 341 l-75 50 -1 77 c0
42 -8 121 -18 176 -23 137 -32 469 -17 680 6 94 28 357 47 585 31 363 35 441
31 625 -7 292 -32 429 -145 810 -135 449 -296 684 -656 954 -135 101 -328 179
-536 217 -102 19 -438 27 -560 13z m389 -1100 c616 -57 921 -445 1031 -1312
24 -192 25 -237 5 -237 -8 0 -12 6 -9 14 17 46 -209 78 -404 58 -266 -27 -502
-129 -502 -216 0 -13 9 -35 20 -49 24 -30 95 -48 288 -72 231 -29 472 -132
644 -275 7 -6 18 -138 53 -660 29 -442 38 -797 39 -1625 1 -832 1 -852 -20
-945 -43 -191 -107 -313 -229 -436 -191 -194 -475 -313 -1005 -423 -580 -120
-1403 -193 -1815 -162 -664 51 -934 207 -1040 602 -98 366 -252 1905 -258
2585 -2 184 23 694 44 884 13 124 44 249 66 267 10 7 81 45 158 83 115 58 158
74 240 89 123 24 174 42 228 80 25 18 76 38 126 51 111 28 141 44 141 75 0 34
-76 89 -159 115 -115 36 -305 24 -529 -35 -108 -29 -195 -70 -259 -122 l-46
-38 6 95 c4 52 11 169 17 260 20 319 50 469 122 620 56 118 165 226 293 292
140 72 267 109 730 212 237 53 496 115 577 136 203 55 279 70 355 70 136 0
205 -47 244 -167 20 -62 22 -86 21 -288 -1 -121 -9 -326 -19 -455 -31 -409
-21 -1416 18 -1855 18 -193 15 -465 -5 -570 -46 -240 -146 -374 -326 -437 -57
-19 -84 -22 -220 -22 -235 1 -262 8 -457 123 -67 40 -73 42 -99 29 -38 -18
-39 -30 -7 -68 47 -56 163 -125 250 -149 255 -68 525 -44 683 62 151 101 242
277 270 522 15 138 12 603 -7 913 -21 355 -21 970 1 1430 30 629 19 762 -74
897 l-31 45 128 1 c70 1 187 5 258 8 206 12 341 12 464 0z m-3562 -1101 c-3
-8 -6 -5 -6 6 -1 11 2 17 5 13 3 -3 4 -12 1 -19z m-27 -169 c-11 -74 -29 -206
-40 -294 l-20 -160 5 110 c6 135 59 494 71 482 2 -2 -5 -64 -16 -138z m739
-373 c-8 -8 -133 -56 -136 -52 -2 2 24 15 59 29 58 24 87 33 77 23z m-802
-163 c-2 -16 -4 -5 -4 22 0 28 2 40 4 28 2 -13 2 -35 0 -50z m523 42 c-52 -28
-70 -31 -70 -12 0 8 20 18 48 24 70 15 71 14 22 -12z m4385 -1195 c3 -5 1 -10
-4 -10 -6 0 -11 5 -11 10 0 6 2 10 4 10 3 0 8 -4 11 -10z m170 -185 c186 -106
275 -221 306 -401 23 -133 -8 -490 -52 -610 -46 -122 -116 -185 -208 -186 -56
0 -88 16 -152 74 l-46 43 -7 455 c-3 250 -9 513 -13 583 l-6 128 59 -26 c32
-14 86 -41 119 -60z m-4715 -580 c11 -205 34 -495 45 -586 l6 -45 -34 4 c-24
3 -50 -5 -92 -27 -32 -17 -69 -31 -82 -31 -127 0 -301 234 -370 499 -36 137
-38 294 -4 369 50 110 153 167 331 184 59 5 120 17 140 26 l35 17 7 -100 c3
-55 11 -194 18 -310z"/>
<path d="M6513 5224 c-126 -62 -194 -205 -164 -344 37 -174 178 -327 349 -380
82 -26 147 -25 216 1 186 69 280 346 179 531 -87 160 -422 271 -580 192z m332
-98 c213 -105 258 -425 72 -522 -76 -40 -181 -33 -268 18 -64 38 -151 134
-184 203 -36 77 -40 163 -10 215 64 108 257 151 390 86z"/>
<path d="M6673 5031 c-65 -60 -71 -206 -10 -276 46 -53 149 -37 184 29 24 44
22 134 -4 177 -18 32 -23 34 -66 31 -45 -3 -46 -2 -49 29 -4 43 -17 45 -55 10z"/>
<path d="M3515 5193 c-205 -21 -345 -124 -400 -292 -24 -74 -17 -199 15 -261
36 -71 61 -99 123 -140 142 -95 381 -91 513 9 102 77 156 183 157 311 1 130
-51 242 -145 310 -60 44 -178 72 -263 63z m198 -146 c90 -45 147 -127 147
-213 0 -59 -32 -144 -72 -189 -52 -59 -107 -90 -193 -111 -128 -30 -250 -3
-334 72 -106 95 -104 243 5 363 71 79 160 112 294 108 81 -2 104 -7 153 -30z"/>
<path d="M3417 4904 c-44 -50 -61 -152 -35 -209 24 -53 99 -69 193 -41 69 21
95 49 95 103 0 51 -16 87 -57 125 -42 40 -76 50 -103 31 -21 -15 -23 -15 -32
1 -13 23 -35 20 -61 -10z m153 -148 c-14 -14 -22 -2 -14 18 5 14 9 15 15 4 4
-7 4 -17 -1 -22z"/>
<path d="M6325 3675 c-102 -16 -408 -83 -885 -192 -630 -144 -829 -180 -1129
-203 -253 -19 -511 -4 -697 40 -116 27 -142 26 -156 -5 -6 -14 -17 -25 -24
-25 -14 0 -44 -27 -44 -39 0 -5 37 -46 83 -92 91 -92 118 -137 215 -361 70
-162 152 -290 225 -351 315 -266 843 -410 1497 -411 236 0 375 16 525 59 304
88 485 298 485 562 0 88 -23 267 -50 388 -30 137 -27 246 11 364 23 73 28 100
20 117 -13 30 -6 34 58 34 80 0 227 17 267 30 53 18 44 49 -21 73 -67 26 -257
32 -380 12z m13 -132 c-22 -43 -42 -96 -62 -164 -17 -60 -29 -85 -43 -90 -37
-14 -235 -39 -463 -59 -351 -31 -503 -55 -760 -119 -85 -22 -202 -47 -260 -56
-58 -10 -174 -37 -259 -61 -274 -78 -364 -88 -450 -53 l-52 22 -68 -20 c-58
-17 -71 -18 -86 -7 -10 8 -17 16 -14 18 8 7 342 84 499 115 193 38 482 85 660
106 117 14 524 68 835 110 131 18 180 29 210 49 34 22 31 42 -7 67 -40 24 -91
21 -237 -15 -112 -28 -70 -21 -560 -86 -211 -28 -386 -49 -388 -46 -2 2 18 7
44 11 49 7 370 76 759 164 357 81 715 139 702 114z m-2602 -344 c137 -18 195
-20 424 -17 l265 4 -115 -23 c-63 -12 -184 -34 -269 -48 -209 -35 -251 -50
-276 -97 -17 -31 -18 -41 -8 -58 11 -17 10 -21 -8 -31 -11 -6 -22 -9 -24 -7
-1 2 -18 37 -38 80 -19 42 -56 108 -81 147 -46 72 -53 87 -38 77 5 -3 81 -15
168 -27z m747 -6 c-7 -2 -21 -2 -30 0 -10 3 -4 5 12 5 17 0 24 -2 18 -5z m457
-503 c-56 -28 -104 -49 -106 -48 -6 7 67 51 123 74 100 41 91 26 -17 -26z
m1053 43 c-7 -2 -21 -2 -30 0 -10 3 -4 5 12 5 17 0 24 -2 18 -5z m-503 -84 c0
-5 -4 -9 -8 -9 -9 0 -32 44 -32 58 1 10 40 -38 40 -49z m840 21 c0 -34 -6 -36
-38 -14 -22 15 -22 17 -5 30 29 22 43 17 43 -16z m-350 -195 c0 -14 -471 -136
-520 -134 -15 0 485 137 508 138 6 1 12 -1 12 -4z m300 -11 c0 -15 -65 -97
-106 -133 -96 -85 -234 -141 -429 -177 -129 -24 -536 -26 -695 -4 l-105 14 85
13 c510 78 845 152 1110 246 138 49 140 49 140 41z m-1900 -164 c0 -5 -7 -7
-15 -4 -8 4 -15 8 -15 10 0 2 7 4 15 4 8 0 15 -4 15 -10z"/>
</g>
</svg>
