<?xml version="1.0" standalone="no"?>
<!DOCTYPE svg PUBLIC "-//W3C//DTD SVG 20010904//EN"
 "http://www.w3.org/TR/2001/REC-SVG-20010904/DTD/svg10.dtd">
<svg version="1.0" xmlns="http://www.w3.org/2000/svg"
 width="1000.000000pt" height="1000.000000pt" viewBox="0 0 1000.000000 1000.000000"
 preserveAspectRatio="xMidYMid meet">
<metadata>
Created by potrace 1.11, written by Peter Selinger 2001-2013
</metadata>
<g transform="translate(0.000000,1000.000000) scale(0.100000,-0.100000)"
fill="#000000" stroke="none">
<path d="M1885 8953 c-131 -19 -299 -84 -416 -163 -82 -56 -203 -177 -259
-259 -58 -86 -114 -208 -142 -311 l-23 -85 0 -1124 0 -1123 90 -23 c168 -43
313 -116 450 -226 95 -77 169 -159 253 -283 46 -68 68 -92 70 -80 38 219 153
596 245 801 236 528 634 921 1035 1024 90 23 243 25 319 5 253 -68 423 -275
498 -611 22 -97 31 -415 15 -542 -14 -115 -75 -362 -119 -482 -17 -47 -31 -91
-31 -98 0 -10 22 -13 90 -13 102 0 250 -27 360 -65 l75 -25 17 22 c57 73 181
256 236 347 182 304 415 828 587 1321 68 194 83 225 126 268 39 38 88 49 149
33 58 -15 91 -39 112 -82 24 -46 22 -112 -7 -252 -67 -324 -126 -844 -166
-1462 -15 -246 -16 -243 51 -159 220 276 1046 1091 1579 1558 183 160 212 179
282 184 146 11 233 -122 166 -254 -14 -27 -131 -176 -261 -331 -129 -156 -297
-361 -373 -455 -141 -176 -466 -605 -484 -640 -9 -16 -7 -18 13 -13 116 27
658 141 977 205 642 129 1179 222 1449 252 l113 12 -4 1161 -3 1160 -23 80
c-49 173 -136 322 -260 446 -124 124 -273 210 -446 260 l-80 24 -3115 1
c-1713 1 -3128 -1 -3145 -3z"/>
<path d="M3230 6761 c-227 -72 -487 -315 -662 -617 -158 -275 -287 -676 -353
-1100 -59 -383 -78 -701 -73 -1274 3 -431 3 -435 -19 -490 -39 -95 -128 -160
-218 -160 -56 0 -147 55 -222 133 -92 97 -149 173 -417 556 l-227 325 4 -1140
3 -1139 23 -80 c49 -173 136 -322 260 -446 126 -126 277 -213 451 -261 l85
-23 3135 0 3135 0 85 23 c174 48 325 135 451 261 124 124 211 273 260 446 l23
80 3 1809 3 1809 -67 -7 c-170 -17 -670 -101 -1167 -197 -384 -74 -1421 -292
-1593 -335 -27 -7 -57 -50 -187 -267 -279 -466 -457 -877 -541 -1251 -36 -156
-82 -206 -190 -206 -80 0 -136 45 -163 130 -15 48 -17 104 -16 455 0 220 6
524 13 675 20 470 41 856 56 1074 8 115 13 211 12 213 -2 2 -33 -52 -69 -120
-81 -153 -152 -268 -263 -426 l-86 -122 84 -84 c95 -95 117 -133 117 -200 0
-78 -49 -143 -127 -166 -71 -20 -114 -1 -210 94 l-83 82 -32 -40 c-18 -22
-126 -148 -239 -281 -113 -133 -210 -247 -214 -253 -8 -15 11 -32 185 -168
219 -172 318 -278 380 -409 78 -163 77 -320 -3 -483 -41 -85 -183 -229 -282
-286 -202 -117 -428 -175 -635 -162 -179 12 -321 68 -419 166 -250 251 -185
647 190 1166 46 64 88 122 94 130 6 10 -3 30 -36 72 -25 32 -58 77 -74 100
l-28 43 -126 -188 c-186 -275 -374 -528 -570 -764 -94 -113 -115 -129 -180
-136 -87 -8 -167 54 -178 138 -10 71 3 101 93 209 275 334 562 736 762 1068
46 75 65 119 76 171 20 99 59 174 126 245 64 69 85 107 158 287 58 143 111
314 138 445 27 126 27 455 1 565 -35 152 -104 262 -189 304 -63 32 -163 35
-248 7z"/>
<path d="M1040 5125 l0 -416 143 -197 c79 -108 213 -296 297 -417 84 -121 189
-271 234 -334 l81 -114 6 399 c3 219 10 440 14 491 l8 92 -32 27 c-40 34 -54
61 -76 154 -9 41 -33 113 -52 160 -120 291 -326 485 -600 565 l-23 6 0 -416z"/>
<path d="M3770 4996 c-74 -21 -86 -32 -135 -122 -52 -97 -53 -110 -10 -204 31
-67 107 -181 118 -177 4 1 100 110 212 242 135 158 200 242 192 246 -50 28
-294 38 -377 15z"/>
<path d="M5410 4744 c0 -44 -3 -137 -6 -209 l-6 -130 47 85 c26 47 76 136 111
198 35 62 64 113 64 115 0 1 -35 2 -77 2 -43 0 -90 4 -105 9 l-28 8 0 -78z"/>
<path d="M3687 3850 c-218 -304 -306 -539 -248 -666 15 -34 30 -47 77 -70 55
-27 67 -29 179 -29 142 0 234 23 357 86 101 53 160 107 194 175 21 43 25 62
20 95 -14 85 -77 176 -180 258 -33 27 -120 96 -192 153 l-130 105 -77 -107z"/>
</g>
</svg>
